<?xml version="1.0" encoding="UTF-8"?>
<svg id="Layer_2" data-name="Layer 2" xmlns="http://www.w3.org/2000/svg" viewBox="0 0 628.56 564.99">
  <defs>
    <style>
      .cls-1 {
        fill: #262625;
        stroke-width: 0px;
      }
    </style>
  </defs>
  <g id="Layer_1-2" data-name="Layer 1">
    <g>
      <g>
        <path class="cls-1" d="M497.04,93.99c23.73,30.94,43,65.61,54.45,102.96,11.49,37.25,14.64,77.29,7.23,115.64-6.53,34.02-20.53,66.95-42.5,93.93-21.89,27.12-50.81,47.72-81.52,63.82-30.81,16.18-63.5,28.35-96.11,40.36-16.28,6.09-32.74,11.76-48.66,18.72-7.89,3.57-15.73,7.49-22.38,13.08-3.28,2.81-6.24,6.09-8.21,9.97-2,3.85-2.93,8.2-2.93,12.53l-1.81-1.2-1.84-1.22c-.17-9.27,5.06-17.73,12.11-23.45,7.05-5.87,15.31-9.96,23.34-13.54,16.25-7.03,32.67-12.6,48.99-18.64,32.64-11.88,65.21-23.88,95.81-39.8,30.5-15.84,59.07-36.05,80.7-62.64,21.7-26.43,35.65-58.84,42.23-92.43,7.31-37.87,4.22-77.42-7.16-114.29-11.33-36.97-30.42-71.35-53.99-102.07l1.12-.86,1.12-.86Z"/>
        <path class="cls-1" d="M438,47.24c14.76,14.81,25.72,20.07,31.72,20.69-3.78-3.08-10.57-9.84-21.91-22.03-4.46-.48-9.57-4.17-12.3-6.97,5.65,3.59,8.87,3.23,8.87,3.22-4.24-4.84-11.11-12.75-16.23-19.34,5.11,2.83,23.36,22.31,43.91,44.91,0,0,5.06,5.68,10.3,12.13,5.28,6.42,10.71,13.61,12.42,15.86,2.52,3.3,2.78.56,2.24-1.72-1.92-2.52-7.52-9.83-12.9-16.29-5.35-6.49-10.46-12.15-10.46-12.15.57-5.44-8.15-19.49-22.4-32.65-16.28-15.04-29.93-21.02-36.24-21.11,3.64,6.43,6.94,19.57,22.96,35.44Z"/>
        <g>
          <path class="cls-1" d="M443.69,92.74c18.95,4.98,30.66,3.94,35.79,1.27-4.6-.67-13.48-3.05-28.44-7.51-3.82,1.91-9.7,1.43-13.19.48,6.22.12,8.67-1.9,8.67-1.91-5.71-1.9-14.89-4.99-21.96-7.88,5.35-.28,28.74,6.49,56.7,15.37,0-.02,10.56,3.67,18.23,6.81l-3.24-4.31c-7.16-2.72-14.78-5.27-14.78-5.26-2.3-5.12-16.39-12.67-33.9-16.31-20.01-4.14-33.34-1.91-38.38,1.34,5.79,3.48,14.12,12.71,34.5,17.9Z"/>
          <path class="cls-1" d="M478.45,42c3.82,21.07,9.95,32.04,14.65,36.37-1.32-4.75-2.98-14.16-5.27-30.83-3.57-3.34-5.76-9.53-6.42-13.46,2.72,6.49,5.76,8.38,5.76,8.39-.67-6.46-1.82-16.94-2.14-25.32,2.73,5.58,6.58,32.52,10.21,62.58l.84,16.7,3.27,4.38c-.25-7.6-1.4-21.61-1.44-21.63,3.81-3.65,5.18-19.51,1.09-38.75-4.68-21.98-13.02-35.96-18.7-40.42-.88,7.18-6.16,19.22-1.84,42Z"/>
        </g>
        <g>
          <path class="cls-1" d="M470.71,129.05c18.87,7.31,31.15,7.89,36.88,5.82-4.67-1.32-13.56-5-28.42-11.4-4.23,1.52-10.23.34-13.71-1.01,6.42.81,9.23-.98,9.22-.98-5.66-2.62-14.75-6.82-21.7-10.51,5.55.27,28.94,9.58,56.67,22.65.02-.04,10.41,5.29,17.91,9.71l-2.72-4.96c-7.01-3.91-14.59-7.58-14.59-7.57-1.66-5.63-15.25-15.42-32.98-21.16-20.25-6.57-34.29-5.47-39.89-2.6,5.59,4.16,13.02,14.38,33.33,22.02Z"/>
          <path class="cls-1" d="M513.29,80.52c1.53,22.56,6.36,34.81,10.68,40.01-.75-5.13-1.12-15.2-1.52-32.99-3.33-3.98-4.9-10.74-5.15-14.97,2.11,7.17,5.06,9.54,5.07,9.55.06-6.87.05-18.04.59-26.9,2.26,6.21,3.5,35.11,3.03,67.02l-1.55,17.51,2.73,5.03c.92-7.9,1.76-22.71,1.69-22.73,4.46-3.23,8.15-19.67,6.15-40.49-2.28-23.81-9.75-39.61-15.27-44.99-1.66,7.45-8.36,19.53-6.46,43.95Z"/>
        </g>
        <g>
          <path class="cls-1" d="M492.72,169c18.21,10.07,30.78,12.79,37.05,11.61-4.58-2.14-13.11-7.43-27.4-16.11-4.61.94-10.61-1.08-13.97-2.92,6.46,1.69,9.67.27,9.66.25-5.41-3.48-14.13-8.96-20.74-13.57,5.66.98,28.47,13.25,54.8,31.42,0-.04,9.84,7.2,16.74,13.18l-1.89-5.62c-6.56-5.31-13.72-10.38-13.72-10.38-.72-6.07-13.18-18.47-30.65-26.8-19.97-9.52-34.6-9.93-40.78-7.63,5.16,4.91,11.26,16.04,30.9,26.56Z"/>
          <path class="cls-1" d="M544.31,125.07c-1.61,23.87,1.29,37.36,4.89,43.53.11-5.48,1.42-15.99,3.64-34.72-2.89-4.7-3.56-12.06-3.25-16.53,1.22,7.86,3.96,10.81,3.96,10.83,1.03-7.18,2.62-19,4.28-28.25,1.56,6.89-.84,37.7-6.82,70.81l-4.73,17.87c.67,1.88,1.29,3.79,1.89,5.7,2.46-7.96,5.92-23.21,5.84-23.26,5.21-2.57,11.86-19.07,12.82-41.41,1.07-25.52-4.9-43.44-10.05-49.93-2.69,7.66-11.07,19.47-12.48,45.36Z"/>
        </g>
        <g>
          <path class="cls-1" d="M507.74,211.88c16.69,13.2,28.99,18.66,35.69,18.74-4.23-3.11-11.89-10.27-24.88-21.56-4.92.13-10.7-2.93-13.81-5.32,6.35,2.76,9.87,1.91,9.88,1.88-4.87-4.44-12.83-11.36-18.79-16.98,5.62,1.83,27,17.51,50.22,41.52.04-.05,8.56,9.39,14.3,17.09l-.69-6.18c-5.52-6.91-11.87-13.56-11.86-13.55.58-6.35-9.78-21.63-26.25-33.05-18.86-13.04-33.89-15.34-40.62-13.87,2.22,2.72,4.42,7.25,8.3,12.62,3.88,5.42,9.47,11.61,18.51,18.66Z"/>
          <path class="cls-1" d="M569.18,176.06c-5.82,24.69-5.69,39.13-3.22,46.29,1.23-5.65,4.79-16.24,10.5-35.43-2.11-5.51-1.57-13.32-.47-17.98-.05,8.48,2.2,12.12,2.24,12.12,2.34-7.34,5.97-19.49,9.18-29.01.57,7.54-6.9,39.9-20.04,72.9,0,0-4.29,8.98-8.7,17.37l.65,6.26c4.36-7.56,11.18-22.59,11.07-22.66,5.89-1.53,16.29-17.27,21.34-40.7,5.72-26.77,2.08-47.03-2.34-54.8-1.89,3.88-5.59,8.5-9.42,15.62-3.83,7.08-7.75,16.65-10.8,30.03Z"/>
        </g>
        <g>
          <path class="cls-1" d="M513.82,256.57c14.01,16.61,25.16,25.27,31.99,26.97-3.56-4.17-9.58-13.33-20.28-27.42-5.08-.96-10.31-5.21-12.94-8.2,5.87,4.03,9.71,3.96,9.7,3.93l-15.56-20.56c5.38,2.84,24.1,22.35,41.86,52.43.07-.05,6.42,11.63,10.21,20.97.37-2.15.61-4.31.91-6.46-3.84-8.46-8.69-16.76-8.68-16.75,2.18-6.27-4.69-24.4-19.16-39.31-16.5-17.02-31.58-21.72-38.76-21.42,1.75,3.05,3.03,7.86,5.87,13.83,2.85,6.02,7.14,13.11,14.83,21.99Z"/>
          <path class="cls-1" d="M584.79,233.55c-11.28,24.45-14.72,39.17-13.95,47.15,2.63-5.51,8.91-15.46,19.06-34.17-.97-6.22,1.35-14.28,3.4-18.93-1.83,8.88-.31,13.19-.29,13.22l15.52-28.54c-.84,8.11-15.22,40.89-36.89,71.43,0,0-6.61,8.15-13.27,15.53-.28,2.18-.59,4.36-.96,6.52,6.42-6.51,17.19-20.19,17.08-20.31,6.34-.1,21.04-13.67,31.48-37.17,11.9-26.87,11.92-49.44,8.72-58.59-2.63,3.72-7.37,7.9-12.67,14.61-5.33,6.69-11.22,15.94-17.23,29.24Z"/>
        </g>
        <g>
          <path class="cls-1" d="M509.24,300.86c10.09,20.04,18.96,31.92,25.48,35.45-2.53-5.16-6.12-16.09-13.44-32.9-4.91-2.26-9.18-7.8-11.12-11.39,4.99,5.43,8.9,6.35,8.91,6.31-2.67-6.44-7.4-16.41-10.85-24.01,4.78,3.93,19.41,27.57,29.29,62.92.05-.05,3.36,13.5,4.66,24.02.89-2.11,1.85-4.18,2.67-6.31-1.62-9.64-4.24-19.32-4.27-19.32,3.86-5.75,1.79-26.04-9.32-44.55-12.66-21.1-27.16-28.78-34.53-30,1.04,3.3,1.31,8.23,2.78,14.66,1.47,6.49,4.17,14.39,9.74,25.11Z"/>
          <path class="cls-1" d="M587.38,295.47c-8.82,11.31-15.09,20.25-19.36,27.58-4.24,7.32-6.43,13.03-7.14,17.1,4.13-4.92,13.25-13.3,28.4-29.99.63-6.66,5.02-14.42,8.25-18.75-4.07,8.78-3.63,13.6-3.62,13.63,5.94-6.36,15.35-17.27,22.91-25.9-2.76,8.37-25.6,39.15-55.94,64.28.01.01-8.93,6.5-17.67,12.18l-2.75,6.36c8.31-4.84,22.87-15.85,22.84-16,6.43,1.59,25.08-8.19,41.88-29.85,19.14-24.82,24.4-48.89,23.2-59.35-3.55,3.33-9.33,6.63-16.32,12.42-7.07,5.75-15.24,14.02-24.69,26.28Z"/>
        </g>
        <g>
          <path class="cls-1" d="M493.51,342.68c5.29,22.19,10.72,36.64,16.25,42.13-1.05-5.88-1.56-17.81-4.7-36.33-4.45-3.53-7.27-10.23-8.34-14.4,3.67,6.82,7.35,8.78,7.39,8.76-1.01-7.25-3.18-18.53-4.8-27,1.95,2.62,5.14,10.71,7.86,23.09,2.73,12.46,5.22,28.56,5.11,47.64.07-.05-.54,14.47-2.63,25.41,1.59-1.8,3.15-3.62,4.67-5.47,1.41-10.16,1.52-20.63,1.51-20.62,2.74-2.34,5.1-8.66,5.86-17.17.77-8.48-.17-19.13-3.28-29.98-7.31-24.71-20.29-35.85-27.48-38.89.25,3.49-.69,8.38-.82,15.14-.13,6.76.52,15.53,3.41,27.69Z"/>
          <path class="cls-1" d="M574.28,358.04c-23.79,18.2-35.45,30.39-39.3,38.4,5.6-3.79,17.38-9.69,37.34-22.91,2.45-6.59,8.91-13.38,13.37-16.94-6.49,7.9-7.33,12.92-7.31,12.97,7.74-4.9,20.19-13.59,30.17-20.52-2.57,3.94-11.6,12.35-24.78,21.89-13.12,9.5-30.76,20.5-49.78,28.84,0,.03-10.96,4-21.51,6.9-1.53,1.87-3.14,3.68-4.75,5.49,4.91-1.22,11.9-3.21,17.66-5.22,5.76-1.98,10.27-3.88,10.27-3.86,5.94,3.53,28.02-.97,51.18-19.22,26.13-20.22,37.89-43.8,39.35-55.05-4.49,2.56-11.23,4.53-19.85,8.71-8.72,4.12-19.17,10.52-32.06,20.52Z"/>
        </g>
        <g>
          <path class="cls-1" d="M467.08,377.68c-.74,11.89-1.28,22.05-.84,30.07.4,8.03,1.73,13.92,3.55,17.51.77-6.25,4.26-18.59,6.99-38.1-3.27-4.98-4.17-12.42-4.1-16.7,1.76,7.7,4.84,10.88,4.88,10.85,1.09-7.35,1.94-18.83,2.37-27.33,1.32,3.1,2.49,11.7,1.76,24.57-.7,12.82-3.77,30.06-9.9,49.27.1,0-5.13,14.48-10.27,25l6.28-4.22c4.37-9.86,7.81-20.41,7.8-20.39,7-2.9,17.53-23.03,17.31-46.25-.05-13.18-3.01-23.4-6.53-30.85-3.53-7.45-7.67-12.21-11.04-14.68-.54,3.39-2.66,7.66-4.38,13.93-1.82,6.29-3.15,14.53-3.88,27.33Z"/>
          <path class="cls-1" d="M543.17,418.34c-15.01,5.89-26.26,10.49-34.64,14.79-8.36,4.26-13.85,8.21-16.97,11.54,6.8-2.09,20.28-4.1,44.59-11.1,4.64-5.97,13.37-10.98,19.02-13.37-9.08,6.25-11.59,11.11-11.59,11.16,9.45-2.64,24.88-8.02,37.18-12.54-3.86,3.38-15.68,9.74-32.17,15.58-16.48,5.9-37.47,10.78-59.02,13.3-.01.02-12.15.59-23.67.52l-6.38,4.23c5.34.12,12.95.11,19.31-.18,6.36-.26,11.43-.76,11.43-.75,4.97,5.29,28.02,7.95,57.13-2.95,16.52-6.24,29.92-15.08,39.51-23.63,9.6-8.59,15.44-16.83,17.89-22.63-5.3,1.52-12.75,1.81-22.77,3.85-10.05,1.96-22.66,5.75-38.84,12.19Z"/>
        </g>
        <g>
          <path class="cls-1" d="M428.28,406.01c-4.88,12.43-8.43,23-10.12,31.47-1.74,8.47-1.7,14.87-.62,18.97,2.29-6.34,8.85-18.44,17.98-38.16-1.89-6-.33-14.05,1.25-18.55-.82,8.56,1.42,12.63,1.47,12.61,3.56-7.43,8.49-19.22,11.85-27.85.3,3.57-1.51,12.79-6.59,26.01-5.01,13.19-13.64,30.32-24.46,48.98.06,0-8.67,13.96-15.78,23.97l7.28-3.24c6.34-9.4,12.4-19.55,12.38-19.55,7.93-1.59,23.73-19.69,31.11-43.61,8.3-27.36,2.24-44.84-2.8-51.8-1.6,3.19-5.08,6.86-9.09,12.89-4.05,6.05-8.66,14.47-13.86,27.86Z"/>
          <path class="cls-1" d="M494.02,468.54c-16.57,1.28-29.01,2.79-38.5,4.97-9.46,2.15-15.92,4.9-19.8,7.6,7.36-.56,21.42.4,47.27.49,6.12-4.61,16.15-6.91,22.44-7.52-10.76,3.36-14.48,7.49-14.5,7.53,10.03.17,26.74-.29,40.26-.82-4.82,2.14-18.33,4.55-36.11,5.34-17.81.85-39.63-.17-62.02-2.37l-24.4-4.25-7.39,3.26c11,2.17,31.64,5.15,31.71,5.04,4.08,6.51,26.43,14.17,57.41,11.99,35.53-2.49,61.44-17.66,69.78-27.79-5.79-.14-13.34-2.22-23.96-3.38-10.63-1.24-24.3-1.55-42.19-.09Z"/>
        </g>
        <g>
          <path class="cls-1" d="M377.23,429.16c-8.36,12.6-14.04,23.4-17.16,32.17-3.16,8.77-3.86,15.49-3.19,19.9,3.28-6.45,11.6-18.54,25.77-38.12-.86-6.59,2.76-14.92,5.74-19.48-3.11,8.99-1.46,13.59-1.42,13.59l20.84-27.69c-.79,3.88-5.78,13.37-14.58,26.54-8.71,13.17-21.4,29.94-35.09,48.51l-18.87,23.91,7.88-2.89,15-19.4c8.65-.96,27.4-17.8,41.05-41.5,15.54-27.16,15.71-47.05,12.58-55.68-6.15,6.35-20.74,13.05-38.55,40.16Z"/>
          <path class="cls-1" d="M434.18,505.69c-33.3-4.72-52.23-1.63-60.94,3.23,7.62.35,22.08,2.85,47.83,7.86,6.79-3.56,17.16-3.78,23.45-2.92-11.21.98-15.55,4.47-15.58,4.5l39.54,8.58c-5.07.89-18.54-.2-36.13-3.12-17.64-2.86-39.26-7.68-62.12-12.44,0,.01-12.59-3.64-25.03-6.7l-8,2.94,32.55,7.98c3.63,7.3,25.61,17.41,56.05,21.21,34.85,4.38,62.07-2.96,72.44-10.53-5.58-1.83-12.43-6.07-22.55-10.13-10.11-4.11-23.43-8.05-41.52-10.45Z"/>
        </g>
      </g>
      <g>
        <path class="cls-1" d="M131.51,93.99c-23.73,30.94-42.99,65.61-54.45,102.96-11.49,37.25-14.64,77.29-7.23,115.64,6.53,34.02,20.53,66.95,42.5,93.93,21.89,27.12,50.81,47.72,81.52,63.82,30.81,16.18,63.51,28.35,96.11,40.36,16.28,6.09,32.74,11.76,48.65,18.72,7.89,3.57,15.73,7.49,22.38,13.08,3.28,2.81,6.24,6.09,8.21,9.97,2,3.85,2.93,8.2,2.93,12.53l1.81-1.2,1.84-1.22c.17-9.27-5.07-17.73-12.11-23.45-7.05-5.87-15.31-9.96-23.34-13.54-16.25-7.03-32.67-12.6-48.99-18.64-32.64-11.88-65.21-23.88-95.81-39.8-30.5-15.84-59.07-36.05-80.7-62.64-21.7-26.43-35.65-58.84-42.23-92.43-7.31-37.87-4.22-77.42,7.16-114.29,11.33-36.97,30.42-71.35,53.99-102.07l-1.12-.86-1.12-.86Z"/>
        <path class="cls-1" d="M190.56,47.24c-14.76,14.81-25.72,20.07-31.72,20.69,3.78-3.08,10.57-9.84,21.91-22.03,4.46-.48,9.57-4.17,12.29-6.97-5.65,3.59-8.86,3.23-8.87,3.22,4.24-4.84,11.11-12.75,16.22-19.34-5.11,2.83-23.36,22.31-43.91,44.91,0,0-5.06,5.68-10.3,12.13-5.28,6.42-10.71,13.61-12.42,15.86-2.52,3.3-2.78.56-2.24-1.72,1.92-2.52,7.52-9.83,12.9-16.29,5.35-6.49,10.46-12.15,10.46-12.15-.57-5.44,8.14-19.5,22.39-32.65,16.28-15.04,29.93-21.02,36.25-21.11-3.64,6.43-6.94,19.57-22.96,35.44Z"/>
        <g>
          <path class="cls-1" d="M184.86,92.74c-18.95,4.98-30.66,3.94-35.79,1.27,4.6-.67,13.48-3.05,28.44-7.51,3.82,1.91,9.7,1.43,13.19.48-6.22.12-8.67-1.9-8.67-1.91,5.71-1.9,14.89-4.99,21.96-7.88-5.35-.28-28.73,6.49-56.7,15.37,0-.02-10.56,3.67-18.22,6.81l3.24-4.31c7.16-2.72,14.78-5.27,14.78-5.26,2.3-5.12,16.39-12.67,33.9-16.31,20.01-4.14,33.33-1.91,38.38,1.34-5.8,3.48-14.13,12.71-34.51,17.9Z"/>
          <path class="cls-1" d="M150.11,42c-3.81,21.07-9.95,32.04-14.65,36.37,1.31-4.75,2.97-14.16,5.27-30.83,3.57-3.34,5.76-9.53,6.42-13.46-2.72,6.49-5.76,8.38-5.76,8.39.67-6.46,1.82-16.94,2.14-25.32-2.73,5.58-6.58,32.52-10.21,62.58l-.84,16.7-3.27,4.38c.25-7.6,1.4-21.61,1.43-21.63-3.81-3.65-5.18-19.51-1.09-38.75,4.68-21.98,13.02-35.96,18.7-40.42.88,7.18,6.16,19.22,1.84,42Z"/>
        </g>
        <g>
          <path class="cls-1" d="M157.84,129.05c-18.87,7.31-31.15,7.89-36.88,5.82,4.67-1.32,13.55-5,28.42-11.4,4.23,1.52,10.22.34,13.71-1.01-6.42.81-9.23-.98-9.22-.98,5.66-2.62,14.75-6.82,21.7-10.51-5.55.27-28.94,9.58-56.67,22.65-.02-.04-10.41,5.29-17.91,9.71l2.72-4.96c7.01-3.91,14.59-7.58,14.59-7.57,1.66-5.63,15.25-15.42,32.98-21.16,20.25-6.57,34.29-5.47,39.89-2.6-5.59,4.16-13.02,14.38-33.34,22.02Z"/>
          <path class="cls-1" d="M115.27,80.52c-1.53,22.56-6.37,34.81-10.68,40.01.75-5.13,1.12-15.2,1.52-32.99,3.33-3.98,4.9-10.74,5.14-14.97-2.11,7.17-5.05,9.54-5.07,9.55-.06-6.87-.05-18.04-.59-26.9-2.26,6.21-3.5,35.11-3.03,67.02l1.55,17.51-2.74,5.03c-.92-7.9-1.76-22.71-1.69-22.73-4.46-3.23-8.15-19.67-6.15-40.49,2.28-23.81,9.75-39.61,15.27-44.99,1.66,7.45,8.36,19.53,6.46,43.95Z"/>
        </g>
        <g>
          <path class="cls-1" d="M135.84,169c-18.2,10.07-30.78,12.79-37.05,11.61,4.58-2.14,13.11-7.43,27.4-16.11,4.61.94,10.62-1.08,13.97-2.92-6.46,1.69-9.67.27-9.66.25,5.41-3.48,14.13-8.96,20.74-13.57-5.66.98-28.47,13.25-54.8,31.42,0-.04-9.84,7.2-16.74,13.18l1.89-5.62c6.56-5.31,13.72-10.38,13.72-10.38.72-6.07,13.18-18.47,30.66-26.8,19.97-9.52,34.6-9.93,40.78-7.63-5.16,4.91-11.26,16.04-30.9,26.56Z"/>
          <path class="cls-1" d="M84.24,125.07c1.61,23.87-1.29,37.36-4.89,43.53-.12-5.48-1.42-15.99-3.65-34.72,2.89-4.7,3.56-12.06,3.25-16.53-1.22,7.86-3.96,10.81-3.96,10.83-1.03-7.18-2.62-19-4.28-28.25-1.56,6.89.84,37.7,6.82,70.81l4.73,17.87c-.67,1.88-1.29,3.79-1.89,5.7-2.46-7.96-5.92-23.21-5.84-23.26-5.21-2.57-11.86-19.07-12.82-41.41-1.07-25.52,4.9-43.44,10.05-49.93,2.68,7.66,11.07,19.47,12.48,45.36Z"/>
        </g>
        <g>
          <path class="cls-1" d="M120.82,211.88c-16.69,13.2-28.99,18.66-35.69,18.74,4.24-3.11,11.9-10.27,24.88-21.56,4.92.13,10.7-2.93,13.81-5.32-6.34,2.76-9.87,1.91-9.88,1.88,4.87-4.44,12.83-11.36,18.8-16.98-5.62,1.83-27,17.51-50.22,41.52-.05-.05-8.56,9.39-14.31,17.09l.69-6.18c5.52-6.91,11.88-13.56,11.87-13.55-.58-6.35,9.78-21.63,26.24-33.05,18.87-13.04,33.9-15.34,40.62-13.87-2.22,2.72-4.42,7.25-8.3,12.62-3.88,5.42-9.47,11.61-18.51,18.66Z"/>
          <path class="cls-1" d="M59.38,176.06c5.82,24.69,5.69,39.13,3.22,46.29-1.23-5.65-4.79-16.24-10.5-35.43,2.11-5.51,1.57-13.32.47-17.98.05,8.48-2.2,12.12-2.24,12.12-2.34-7.34-5.97-19.49-9.18-29.01-.57,7.54,6.9,39.9,20.05,72.9,0,0,4.28,8.98,8.69,17.37l-.65,6.26c-4.36-7.56-11.19-22.59-11.07-22.66-5.89-1.53-16.29-17.27-21.33-40.7-5.72-26.77-2.08-47.03,2.34-54.8,1.89,3.88,5.59,8.5,9.42,15.62,3.83,7.08,7.75,16.65,10.8,30.03Z"/>
        </g>
        <g>
          <path class="cls-1" d="M114.74,256.57c-14.01,16.61-25.16,25.27-31.98,26.97,3.56-4.17,9.57-13.33,20.28-27.42,5.08-.96,10.31-5.21,12.94-8.2-5.87,4.03-9.71,3.96-9.71,3.93l15.56-20.56c-5.37,2.84-24.1,22.35-41.86,52.43-.07-.05-6.42,11.63-10.2,20.97-.37-2.15-.61-4.31-.91-6.46,3.84-8.46,8.69-16.76,8.68-16.75-2.18-6.27,4.69-24.4,19.16-39.31,16.5-17.02,31.57-21.72,38.75-21.42-1.75,3.05-3.03,7.86-5.87,13.83-2.85,6.02-7.14,13.11-14.83,21.99Z"/>
          <path class="cls-1" d="M43.76,233.55c11.28,24.45,14.72,39.17,13.95,47.15-2.62-5.51-8.91-15.46-19.06-34.17.96-6.22-1.35-14.28-3.4-18.93,1.83,8.88.31,13.19.29,13.22l-15.52-28.54c.84,8.11,15.23,40.89,36.89,71.43,0,0,6.61,8.15,13.27,15.53.28,2.18.59,4.36.95,6.52-6.42-6.51-17.19-20.19-17.08-20.31-6.34-.1-21.04-13.67-31.48-37.17-11.89-26.87-11.92-49.44-8.72-58.59,2.63,3.72,7.37,7.9,12.67,14.61,5.33,6.69,11.23,15.94,17.23,29.24Z"/>
        </g>
        <g>
          <path class="cls-1" d="M119.32,300.86c-10.09,20.04-18.95,31.92-25.48,35.45,2.53-5.16,6.12-16.09,13.45-32.9,4.9-2.26,9.18-7.8,11.12-11.39-4.99,5.43-8.9,6.35-8.91,6.31,2.67-6.44,7.4-16.41,10.85-24.01-4.78,3.93-19.41,27.57-29.29,62.92-.05-.05-3.36,13.5-4.66,24.02-.89-2.11-1.85-4.18-2.67-6.31,1.63-9.64,4.24-19.32,4.27-19.32-3.86-5.75-1.79-26.04,9.32-44.55,12.66-21.1,27.16-28.78,34.53-30-1.04,3.3-1.31,8.23-2.78,14.66-1.47,6.49-4.17,14.39-9.74,25.11Z"/>
          <path class="cls-1" d="M41.18,295.47c8.82,11.31,15.09,20.25,19.36,27.58,4.24,7.32,6.43,13.03,7.14,17.1-4.13-4.92-13.25-13.3-28.41-29.99-.63-6.66-5.01-14.42-8.25-18.75,4.07,8.78,3.64,13.6,3.62,13.63-5.94-6.36-15.35-17.27-22.91-25.9,2.76,8.37,25.6,39.15,55.94,64.28-.01.01,8.93,6.5,17.67,12.18l2.75,6.36c-8.31-4.84-22.87-15.85-22.84-16-6.43,1.59-25.08-8.19-41.88-29.85C4.22,291.31-1.04,267.24.16,256.78c3.55,3.33,9.33,6.63,16.33,12.42,7.07,5.75,15.24,14.02,24.69,26.28Z"/>
        </g>
        <g>
          <path class="cls-1" d="M135.04,342.68c-5.29,22.19-10.72,36.64-16.25,42.13,1.05-5.88,1.56-17.81,4.7-36.33,4.45-3.53,7.27-10.23,8.34-14.4-3.67,6.82-7.35,8.78-7.39,8.76,1.01-7.25,3.18-18.53,4.8-27-1.95,2.62-5.14,10.71-7.85,23.09-2.73,12.46-5.23,28.56-5.11,47.64-.07-.05.54,14.47,2.63,25.41-1.59-1.8-3.15-3.62-4.67-5.47-1.41-10.16-1.52-20.63-1.51-20.62-2.74-2.34-5.1-8.66-5.86-17.17-.77-8.48.17-19.13,3.28-29.98,7.31-24.71,20.29-35.85,27.48-38.89-.25,3.49.69,8.38.82,15.14.13,6.76-.52,15.53-3.41,27.69Z"/>
          <path class="cls-1" d="M54.27,358.04c23.79,18.2,35.45,30.39,39.3,38.4-5.6-3.79-17.38-9.69-37.34-22.91-2.45-6.59-8.9-13.38-13.37-16.94,6.49,7.9,7.33,12.92,7.31,12.97-7.74-4.9-20.19-13.59-30.17-20.52,2.57,3.94,11.6,12.35,24.78,21.89,13.11,9.5,30.76,20.5,49.78,28.84,0,.03,10.96,4,21.51,6.9,1.53,1.87,3.14,3.68,4.75,5.49-4.91-1.22-11.9-3.21-17.66-5.22-5.76-1.98-10.27-3.88-10.28-3.86-5.94,3.53-28.02-.97-51.18-19.22-26.13-20.22-37.89-43.8-39.35-55.05,4.49,2.56,11.23,4.53,19.85,8.71,8.72,4.12,19.17,10.52,32.06,20.52Z"/>
        </g>
        <g>
          <path class="cls-1" d="M161.48,377.68c.74,11.89,1.27,22.05.84,30.07-.4,8.03-1.73,13.92-3.55,17.51-.77-6.25-4.26-18.59-6.99-38.1,3.27-4.98,4.17-12.42,4.1-16.7-1.76,7.7-4.84,10.88-4.88,10.85-1.09-7.35-1.93-18.83-2.37-27.33-1.32,3.1-2.48,11.7-1.76,24.57.71,12.82,3.78,30.06,9.9,49.27-.1,0,5.13,14.48,10.27,25l-6.28-4.22c-4.37-9.86-7.81-20.41-7.8-20.39-7-2.9-17.53-23.03-17.31-46.25.06-13.18,3.01-23.4,6.53-30.85,3.54-7.45,7.67-12.21,11.04-14.68.54,3.39,2.66,7.66,4.38,13.93,1.82,6.29,3.15,14.53,3.88,27.33Z"/>
          <path class="cls-1" d="M85.38,418.34c15.01,5.89,26.26,10.49,34.64,14.79,8.36,4.26,13.85,8.21,16.97,11.54-6.8-2.09-20.28-4.1-44.59-11.1-4.64-5.97-13.37-10.98-19.02-13.37,9.08,6.25,11.59,11.11,11.59,11.16-9.44-2.64-24.88-8.02-37.18-12.54,3.86,3.38,15.69,9.74,32.18,15.58,16.48,5.9,37.47,10.78,59.02,13.3.01.02,12.15.59,23.67.52l6.38,4.23c-5.34.12-12.95.11-19.31-.18-6.36-.26-11.43-.76-11.43-.75-4.98,5.29-28.02,7.95-57.13-2.95-16.52-6.24-29.92-15.08-39.51-23.63-9.6-8.59-15.44-16.83-17.89-22.63,5.3,1.52,12.75,1.81,22.77,3.85,10.06,1.96,22.66,5.75,38.84,12.19Z"/>
        </g>
        <g>
          <path class="cls-1" d="M200.28,406.01c4.88,12.43,8.43,23,10.12,31.47,1.74,8.47,1.7,14.87.62,18.97-2.29-6.34-8.85-18.44-17.99-38.16,1.89-6,.33-14.05-1.25-18.55.82,8.56-1.42,12.63-1.47,12.61-3.56-7.43-8.49-19.22-11.85-27.85-.3,3.57,1.51,12.79,6.59,26.01,5.01,13.19,13.64,30.32,24.47,48.98-.06,0,8.67,13.96,15.78,23.97l-7.28-3.24c-6.34-9.4-12.4-19.55-12.38-19.55-7.93-1.59-23.72-19.69-31.11-43.61-8.3-27.36-2.24-44.84,2.81-51.8,1.6,3.19,5.08,6.86,9.1,12.89,4.05,6.05,8.65,14.47,13.86,27.86Z"/>
          <path class="cls-1" d="M134.54,468.54c16.57,1.28,29,2.79,38.5,4.97,9.46,2.15,15.92,4.9,19.81,7.6-7.36-.56-21.42.4-47.27.49-6.12-4.61-16.15-6.91-22.44-7.52,10.76,3.36,14.48,7.49,14.5,7.53-10.03.17-26.74-.29-40.26-.82,4.82,2.14,18.33,4.55,36.11,5.34,17.81.85,39.63-.17,62.02-2.37l24.4-4.25,7.39,3.26c-11,2.17-31.64,5.15-31.71,5.04-4.08,6.51-26.43,14.17-57.41,11.99-35.53-2.49-61.44-17.66-69.78-27.79,5.79-.14,13.34-2.22,23.96-3.38,10.62-1.24,24.3-1.55,42.19-.09Z"/>
        </g>
        <g>
          <path class="cls-1" d="M251.32,429.16c8.36,12.6,14.04,23.4,17.16,32.17,3.16,8.77,3.86,15.49,3.19,19.9-3.28-6.45-11.6-18.54-25.77-38.12.86-6.59-2.76-14.92-5.74-19.48,3.11,8.99,1.46,13.59,1.42,13.59l-20.84-27.69c.79,3.88,5.79,13.37,14.58,26.54,8.71,13.17,21.4,29.94,35.09,48.51l18.87,23.91-7.88-2.89-15-19.4c-8.65-.96-27.39-17.8-41.05-41.5-15.54-27.16-15.71-47.05-12.58-55.68,6.15,6.35,20.74,13.05,38.55,40.16Z"/>
          <path class="cls-1" d="M194.38,505.69c33.31-4.72,52.23-1.63,60.94,3.23-7.62.35-22.08,2.85-47.82,7.86-6.79-3.56-17.16-3.78-23.45-2.92,11.21.98,15.56,4.47,15.58,4.5l-39.54,8.58c5.07.89,18.53-.2,36.13-3.12,17.64-2.86,39.26-7.68,62.12-12.44,0,.01,12.59-3.64,25.03-6.7l8,2.94-32.55,7.98c-3.63,7.3-25.61,17.41-56.05,21.21-34.85,4.38-62.07-2.96-72.44-10.53,5.58-1.83,12.43-6.07,22.55-10.13,10.11-4.11,23.43-8.05,41.52-10.45Z"/>
        </g>
      </g>
    </g>
  </g>
</svg>