{
	"asset":{
		"version":"2.0",
		"generator":"Maxon Cinema 4D 2024.4.1 (#200000219)"
	},
	"scenes":[{
		"nodes":[0,
		1]
	}],
	"nodes":[{
		"name":"OG",
		"translation":[-3.129143238067627,
		-0.7630413174629211,
		0.0],
		"rotation":[0.0,
		0.0,
		0.0,
		-1.0],
		"scale":[1.0,
		1.0,
		1.0],
		"children":[2,
		3,
		4,
		5,
		6]
	},
	{
		"name":"RS Camera",
		"camera":0,
		"translation":[35.900657653808597,
		23.21818733215332,
		37.806373596191409],
		"rotation":[0.19027721881866456,
		-0.39614975452423098,
		-0.08428835868835449,
		-0.8942904472351074],
		"scale":[1.0,
		1.0,
		1.0]
	},
	{
		"name":"01-Sphere",
		"translation":[3.129143238067627,
		0.7630413174629211,
		0.0],
		"rotation":[0.0,
		0.0,
		0.0,
		-1.0],
		"scale":[1.0,
		1.0,
		1.0],
		"children":[7,
		8]
	},
	{
		"name":"02-Line",
		"translation":[-1.370856761932373,
		-0.3125377893447876,
		0.0],
		"rotation":[0.0,
		0.0,
		0.0,
		-1.0],
		"scale":[1.0,
		1.0,
		1.0],
		"children":[9,
		10,
		11,
		12,
		13]
	},
	{
		"name":"03-Base",
		"translation":[-1.847783088684082,
		-3.1804568767547609,
		0.0],
		"rotation":[0.0,
		0.0,
		0.0,
		-1.0],
		"scale":[1.0,
		1.0,
		1.0],
		"children":[14,
		15,
		16]
	},
	{
		"name":"04-Brace",
		"translation":[0.08949658274650574,
		2.7299532890319826,
		0.0],
		"rotation":[0.0,
		0.0,
		0.3420201539993286,
		-0.9396926164627075],
		"scale":[1.0,
		1.0,
		1.0],
		"children":[17]
	},
	{
		"name":"05-BaseFloor",
		"translation":[-0.9046473503112793,
		-4.827206134796143,
		0.0],
		"rotation":[0.0,
		0.0,
		0.0,
		-1.0],
		"scale":[1.0,
		1.0,
		1.0],
		"children":[18]
	},
	{
		"name":"HalfSphereTop",
		"translation":[0.0,
		0.0,
		0.0],
		"rotation":[1.0,
		-6.123234262925839e-17,
		6.123234262925839e-17,
		-6.123234262925839e-17],
		"scale":[1.0,
		1.0,
		1.0],
		"children":[19]
	},
	{
		"name":"HalfSphereBottom",
		"children":[20]
	},
	{
		"name":"HighlightCylinder.2",
		"mesh":0,
		"translation":[0.0,
		1.2171157598495484,
		0.0],
		"rotation":[0.0,
		0.0,
		0.0,
		-1.0],
		"scale":[1.0,
		1.0,
		1.0]
	},
	{
		"name":"HighlightCylinder.1",
		"mesh":1,
		"translation":[0.0,
		1.1561468839645386,
		0.0],
		"rotation":[0.0,
		0.0,
		0.0,
		-1.0],
		"scale":[1.0,
		1.0,
		1.0]
	},
	{
		"name":"HighlightCylinder",
		"mesh":2,
		"translation":[0.0,
		1.0755791664123536,
		0.0],
		"rotation":[0.0,
		0.0,
		0.0,
		-1.0],
		"scale":[1.0,
		1.0,
		1.0]
	},
	{
		"name":"BaseCylinder",
		"mesh":3,
		"translation":[0.0,
		-2.4744207859039308,
		0.0],
		"rotation":[0.0,
		0.0,
		0.0,
		-1.0],
		"scale":[1.0,
		1.0,
		1.0]
	},
	{
		"name":"Cylinder",
		"mesh":4,
		"translation":[0.0,
		-0.9744209051132202,
		0.0],
		"rotation":[0.0,
		0.0,
		0.0,
		-1.0],
		"scale":[1.0,
		1.0,
		1.0]
	},
	{
		"name":"Cylinder.1",
		"mesh":5,
		"translation":[0.332082062959671,
		-2.1467490196228029,
		0.0],
		"rotation":[0.0,
		0.0,
		0.0,
		-1.0],
		"scale":[1.0,
		1.0,
		1.0]
	},
	{
		"name":"Cylinder",
		"mesh":6,
		"translation":[0.34099164605140688,
		2.25325083732605,
		0.0],
		"rotation":[0.0,
		0.0,
		0.0,
		-1.0],
		"scale":[1.0,
		1.0,
		1.0]
	},
	{
		"name":"BaseWeight",
		"translation":[-0.6730737090110779,
		-0.10650189220905304,
		0.0],
		"rotation":[0.0,
		0.0,
		0.0,
		-1.0],
		"scale":[1.0,
		1.0,
		1.0],
		"children":[21]
	},
	{
		"name":"Cylinder",
		"mesh":7
	},
	{
		"name":"Cube",
		"mesh":8
	},
	{
		"name":"SS",
		"mesh":9
	},
	{
		"name":"SS",
		"mesh":10
	},
	{
		"name":"Subdivision Surface",
		"mesh":11
	}],
	"meshes":[{
		"name":"HighlightCylinder.2",
		"primitives":[{
			"attributes":{
				"POSITION":1,
				"NORMAL":2,
				"TEXCOORD_0":3
			},
			"indices":0
		}]
	},
	{
		"name":"HighlightCylinder.1",
		"primitives":[{
			"attributes":{
				"POSITION":5,
				"NORMAL":6,
				"TEXCOORD_0":7
			},
			"indices":4
		}]
	},
	{
		"name":"HighlightCylinder",
		"primitives":[{
			"attributes":{
				"POSITION":9,
				"NORMAL":10,
				"TEXCOORD_0":11
			},
			"indices":8
		}]
	},
	{
		"name":"BaseCylinder",
		"primitives":[{
			"attributes":{
				"POSITION":13,
				"NORMAL":14,
				"TEXCOORD_0":15
			},
			"indices":12
		}]
	},
	{
		"name":"Cylinder",
		"primitives":[{
			"attributes":{
				"POSITION":17,
				"NORMAL":18,
				"TEXCOORD_0":19
			},
			"indices":16
		}]
	},
	{
		"name":"Cylinder.1",
		"primitives":[{
			"attributes":{
				"POSITION":21,
				"NORMAL":22,
				"TEXCOORD_0":23
			},
			"indices":20
		}]
	},
	{
		"name":"Cylinder",
		"primitives":[{
			"attributes":{
				"POSITION":25,
				"NORMAL":26,
				"TEXCOORD_0":27
			},
			"indices":24
		}]
	},
	{
		"name":"Cylinder",
		"primitives":[{
			"attributes":{
				"POSITION":29,
				"NORMAL":30,
				"TEXCOORD_0":31
			},
			"indices":28
		}]
	},
	{
		"name":"Cube",
		"primitives":[{
			"attributes":{
				"POSITION":33,
				"NORMAL":34,
				"TEXCOORD_0":35
			},
			"indices":32
		}]
	},
	{
		"name":"SS",
		"primitives":[{
			"attributes":{
				"POSITION":37,
				"NORMAL":38,
				"TEXCOORD_0":39
			},
			"indices":36
		}]
	},
	{
		"name":"SS",
		"primitives":[{
			"attributes":{
				"POSITION":41,
				"NORMAL":42,
				"TEXCOORD_0":43
			},
			"indices":40
		}]
	},
	{
		"name":"Subdivision Surface",
		"primitives":[{
			"attributes":{
				"POSITION":45,
				"NORMAL":46,
				"TEXCOORD_0":47
			},
			"indices":44
		}]
	}],
	"cameras":[{
		"type":"perspective",
		"perspective":{
			"znear":0.009999999776482582,
			"zfar":10000000000.0,
			"aspectRatio":1.7777777910232545,
			"yfov":0.25178632140159609
		}
	}],
	"accessors":[{
		"bufferView":0,
		"type":"SCALAR",
		"count":192,
		"componentType":5123,
		"byteOffset":0,
		"min":[0],
		"max":[67]
	},
	{
		"bufferView":1,
		"type":"VEC3",
		"count":68,
		"componentType":5126,
		"byteOffset":0,
		"min":[-0.05000000074505806,
		-0.029999999329447748,
		-0.05000000074505806],
		"max":[0.05000000074505806,
		0.029999999329447748,
		0.05000000074505806]
	},
	{
		"bufferView":1,
		"type":"VEC3",
		"count":68,
		"componentType":5126,
		"byteOffset":12,
		"min":[-0.9978092312812805,
		-1.0,
		-0.9978092312812805],
		"max":[0.9978092312812805,
		1.0,
		0.9978092312812805]
	},
	{
		"bufferView":1,
		"type":"VEC2",
		"count":68,
		"componentType":5126,
		"byteOffset":24,
		"min":[0.0,
		0.0],
		"max":[1.0,
		1.0]
	},
	{
		"bufferView":2,
		"type":"SCALAR",
		"count":192,
		"componentType":5123,
		"byteOffset":0,
		"min":[0],
		"max":[67]
	},
	{
		"bufferView":3,
		"type":"VEC3",
		"count":68,
		"componentType":5126,
		"byteOffset":0,
		"min":[-0.05000000074505806,
		-0.029999999329447748,
		-0.05000000074505806],
		"max":[0.05000000074505806,
		0.029999999329447748,
		0.05000000074505806]
	},
	{
		"bufferView":3,
		"type":"VEC3",
		"count":68,
		"componentType":5126,
		"byteOffset":12,
		"min":[-0.9978092312812805,
		-1.0,
		-0.9978092312812805],
		"max":[0.9978092312812805,
		1.0,
		0.9978092312812805]
	},
	{
		"bufferView":3,
		"type":"VEC2",
		"count":68,
		"componentType":5126,
		"byteOffset":24,
		"min":[0.0,
		0.0],
		"max":[1.0,
		1.0]
	},
	{
		"bufferView":4,
		"type":"SCALAR",
		"count":192,
		"componentType":5123,
		"byteOffset":0,
		"min":[0],
		"max":[67]
	},
	{
		"bufferView":5,
		"type":"VEC3",
		"count":68,
		"componentType":5126,
		"byteOffset":0,
		"min":[-0.05000000074505806,
		-0.05000000074505806,
		-0.05000000074505806],
		"max":[0.05000000074505806,
		0.05000000074505806,
		0.05000000074505806]
	},
	{
		"bufferView":5,
		"type":"VEC3",
		"count":68,
		"componentType":5126,
		"byteOffset":12,
		"min":[-0.9978092312812805,
		-1.0,
		-0.9978092312812805],
		"max":[0.9978092312812805,
		1.0,
		0.9978092312812805]
	},
	{
		"bufferView":5,
		"type":"VEC2",
		"count":68,
		"componentType":5126,
		"byteOffset":24,
		"min":[0.0,
		0.0],
		"max":[1.0,
		1.0]
	},
	{
		"bufferView":6,
		"type":"SCALAR",
		"count":192,
		"componentType":5123,
		"byteOffset":0,
		"min":[0],
		"max":[67]
	},
	{
		"bufferView":7,
		"type":"VEC3",
		"count":68,
		"componentType":5126,
		"byteOffset":0,
		"min":[-0.05000000074505806,
		-3.5,
		-0.05000000074505806],
		"max":[0.05000000074505806,
		3.5,
		0.05000000074505806]
	},
	{
		"bufferView":7,
		"type":"VEC3",
		"count":68,
		"componentType":5126,
		"byteOffset":12,
		"min":[-0.9978092312812805,
		-1.0,
		-0.9978092312812805],
		"max":[0.9978092312812805,
		1.0,
		0.9978092312812805]
	},
	{
		"bufferView":7,
		"type":"VEC2",
		"count":68,
		"componentType":5126,
		"byteOffset":24,
		"min":[0.0,
		0.0],
		"max":[1.0,
		1.0]
	},
	{
		"bufferView":8,
		"type":"SCALAR",
		"count":25056,
		"componentType":5123,
		"byteOffset":0,
		"min":[0],
		"max":[4470]
	},
	{
		"bufferView":9,
		"type":"VEC3",
		"count":4471,
		"componentType":5126,
		"byteOffset":0,
		"min":[-0.029999999329447748,
		-5.0,
		-0.029999999329447748],
		"max":[4.52019739151001,
		5.890098571777344,
		0.029999999329447748]
	},
	{
		"bufferView":9,
		"type":"VEC3",
		"count":4471,
		"componentType":5126,
		"byteOffset":12,
		"min":[-1.0,
		-1.0,
		-1.0],
		"max":[1.0,
		1.0,
		1.0]
	},
	{
		"bufferView":9,
		"type":"VEC2",
		"count":4471,
		"componentType":5126,
		"byteOffset":24,
		"min":[0.0,
		0.0],
		"max":[1.0,
		1.0]
	},
	{
		"bufferView":10,
		"type":"SCALAR",
		"count":480,
		"componentType":5123,
		"byteOffset":0,
		"min":[0],
		"max":[118]
	},
	{
		"bufferView":11,
		"type":"VEC3",
		"count":119,
		"componentType":5126,
		"byteOffset":0,
		"min":[-0.09000000357627869,
		-0.09000000357627869,
		-0.30000001192092898],
		"max":[0.09000000357627869,
		0.09000000357627869,
		0.30000001192092898]
	},
	{
		"bufferView":11,
		"type":"VEC3",
		"count":119,
		"componentType":5126,
		"byteOffset":12,
		"min":[-1.0,
		-1.0,
		-1.0],
		"max":[1.0,
		1.0,
		1.0]
	},
	{
		"bufferView":11,
		"type":"VEC2",
		"count":119,
		"componentType":5126,
		"byteOffset":24,
		"min":[0.0,
		0.0],
		"max":[1.0,
		1.0]
	},
	{
		"bufferView":12,
		"type":"SCALAR",
		"count":480,
		"componentType":5123,
		"byteOffset":0,
		"min":[0],
		"max":[118]
	},
	{
		"bufferView":13,
		"type":"VEC3",
		"count":119,
		"componentType":5126,
		"byteOffset":0,
		"min":[-0.09000000357627869,
		-0.09000000357627869,
		-0.30000001192092898],
		"max":[0.09000000357627869,
		0.09000000357627869,
		0.30000001192092898]
	},
	{
		"bufferView":13,
		"type":"VEC3",
		"count":119,
		"componentType":5126,
		"byteOffset":12,
		"min":[-1.0,
		-1.0,
		-1.0],
		"max":[1.0,
		1.0,
		1.0]
	},
	{
		"bufferView":13,
		"type":"VEC2",
		"count":119,
		"componentType":5126,
		"byteOffset":24,
		"min":[0.0,
		0.0],
		"max":[1.0,
		1.0]
	},
	{
		"bufferView":14,
		"type":"SCALAR",
		"count":480,
		"componentType":5123,
		"byteOffset":0,
		"min":[0],
		"max":[118]
	},
	{
		"bufferView":15,
		"type":"VEC3",
		"count":119,
		"componentType":5126,
		"byteOffset":0,
		"min":[-0.009999999776482582,
		-2.240000009536743,
		-0.009999999776482582],
		"max":[0.009999999776482582,
		2.240000009536743,
		0.009999999776482582]
	},
	{
		"bufferView":15,
		"type":"VEC3",
		"count":119,
		"componentType":5126,
		"byteOffset":12,
		"min":[-1.0,
		-1.0,
		-1.0],
		"max":[1.0,
		1.0,
		1.0]
	},
	{
		"bufferView":15,
		"type":"VEC2",
		"count":119,
		"componentType":5126,
		"byteOffset":24,
		"min":[0.0,
		0.0],
		"max":[1.0,
		1.0]
	},
	{
		"bufferView":16,
		"type":"SCALAR",
		"count":10320,
		"componentType":5123,
		"byteOffset":0,
		"min":[0],
		"max":[1969]
	},
	{
		"bufferView":17,
		"type":"VEC3",
		"count":1970,
		"componentType":5126,
		"byteOffset":0,
		"min":[-1.1937177181243897,
		-1.4959864616394044,
		-0.2549999952316284],
		"max":[0.014999999664723874,
		2.5,
		0.2549999952316284]
	},
	{
		"bufferView":17,
		"type":"VEC3",
		"count":1970,
		"componentType":5126,
		"byteOffset":12,
		"min":[-1.0,
		-1.0,
		-1.0],
		"max":[1.0,
		1.0,
		1.0]
	},
	{
		"bufferView":17,
		"type":"VEC2",
		"count":1970,
		"componentType":5126,
		"byteOffset":24,
		"min":[0.0,
		0.0],
		"max":[1.0,
		1.0]
	},
	{
		"bufferView":18,
		"type":"SCALAR",
		"count":42240,
		"componentType":5123,
		"byteOffset":0,
		"min":[0],
		"max":[7267]
	},
	{
		"bufferView":19,
		"type":"VEC3",
		"count":7268,
		"componentType":5126,
		"byteOffset":0,
		"min":[-0.9922823905944824,
		-0.9984285235404968,
		-0.9922823905944824],
		"max":[0.9922823905944824,
		-0.000025173167159664446,
		0.9922823905944824]
	},
	{
		"bufferView":19,
		"type":"VEC3",
		"count":7268,
		"componentType":5126,
		"byteOffset":12,
		"min":[-0.9999990463256836,
		-1.0,
		-0.999998927116394],
		"max":[0.999998927116394,
		0.9999998807907105,
		0.999998927116394]
	},
	{
		"bufferView":19,
		"type":"VEC2",
		"count":7268,
		"componentType":5126,
		"byteOffset":24,
		"min":[0.0,
		0.5],
		"max":[1.0,
		0.98046875]
	},
	{
		"bufferView":20,
		"type":"SCALAR",
		"count":42240,
		"componentType":5123,
		"byteOffset":0,
		"min":[0],
		"max":[7267]
	},
	{
		"bufferView":21,
		"type":"VEC3",
		"count":7268,
		"componentType":5126,
		"byteOffset":0,
		"min":[-0.9922823905944824,
		-0.9984285235404968,
		-0.9922823905944824],
		"max":[0.9922823905944824,
		-0.000025173167159664446,
		0.9922823905944824]
	},
	{
		"bufferView":21,
		"type":"VEC3",
		"count":7268,
		"componentType":5126,
		"byteOffset":12,
		"min":[-0.9999990463256836,
		-1.0,
		-0.999998927116394],
		"max":[0.999998927116394,
		0.9999998807907105,
		0.999998927116394]
	},
	{
		"bufferView":21,
		"type":"VEC2",
		"count":7268,
		"componentType":5126,
		"byteOffset":24,
		"min":[0.0,
		0.5],
		"max":[1.0,
		0.98046875]
	},
	{
		"bufferView":22,
		"type":"SCALAR",
		"count":5184,
		"componentType":5123,
		"byteOffset":0,
		"min":[0],
		"max":[1076]
	},
	{
		"bufferView":23,
		"type":"VEC3",
		"count":1077,
		"componentType":5126,
		"byteOffset":0,
		"min":[-0.8119812607765198,
		-3.0,
		-0.6644540429115295],
		"max":[0.9241020083427429,
		3.0,
		0.6641284227371216]
	},
	{
		"bufferView":23,
		"type":"VEC3",
		"count":1077,
		"componentType":5126,
		"byteOffset":12,
		"min":[-0.9996545910835266,
		-1.0,
		-0.9985944032669067],
		"max":[1.0,
		1.0,
		0.9986649751663208]
	},
	{
		"bufferView":23,
		"type":"VEC2",
		"count":1077,
		"componentType":5126,
		"byteOffset":24,
		"min":[-0.027122948318719865,
		-0.03378257900476456],
		"max":[1.025153398513794,
		1.0229511260986329]
	}],
	"bufferViews":[{
		"buffer":0,
		"byteOffset":0,
		"byteLength":384,
		"target":34963
	},
	{
		"buffer":0,
		"byteOffset":384,
		"byteLength":2176,
		"target":34962,
		"byteStride":32
	},
	{
		"buffer":1,
		"byteOffset":0,
		"byteLength":384,
		"target":34963
	},
	{
		"buffer":1,
		"byteOffset":384,
		"byteLength":2176,
		"target":34962,
		"byteStride":32
	},
	{
		"buffer":2,
		"byteOffset":0,
		"byteLength":384,
		"target":34963
	},
	{
		"buffer":2,
		"byteOffset":384,
		"byteLength":2176,
		"target":34962,
		"byteStride":32
	},
	{
		"buffer":3,
		"byteOffset":0,
		"byteLength":384,
		"target":34963
	},
	{
		"buffer":3,
		"byteOffset":384,
		"byteLength":2176,
		"target":34962,
		"byteStride":32
	},
	{
		"buffer":4,
		"byteOffset":0,
		"byteLength":50112,
		"target":34963
	},
	{
		"buffer":4,
		"byteOffset":50112,
		"byteLength":143072,
		"target":34962,
		"byteStride":32
	},
	{
		"buffer":5,
		"byteOffset":0,
		"byteLength":960,
		"target":34963
	},
	{
		"buffer":5,
		"byteOffset":960,
		"byteLength":3808,
		"target":34962,
		"byteStride":32
	},
	{
		"buffer":6,
		"byteOffset":0,
		"byteLength":960,
		"target":34963
	},
	{
		"buffer":6,
		"byteOffset":960,
		"byteLength":3808,
		"target":34962,
		"byteStride":32
	},
	{
		"buffer":7,
		"byteOffset":0,
		"byteLength":960,
		"target":34963
	},
	{
		"buffer":7,
		"byteOffset":960,
		"byteLength":3808,
		"target":34962,
		"byteStride":32
	},
	{
		"buffer":8,
		"byteOffset":0,
		"byteLength":20640,
		"target":34963
	},
	{
		"buffer":8,
		"byteOffset":20640,
		"byteLength":63040,
		"target":34962,
		"byteStride":32
	},
	{
		"buffer":9,
		"byteOffset":0,
		"byteLength":84480,
		"target":34963
	},
	{
		"buffer":9,
		"byteOffset":84480,
		"byteLength":232576,
		"target":34962,
		"byteStride":32
	},
	{
		"buffer":10,
		"byteOffset":0,
		"byteLength":84480,
		"target":34963
	},
	{
		"buffer":10,
		"byteOffset":84480,
		"byteLength":232576,
		"target":34962,
		"byteStride":32
	},
	{
		"buffer":11,
		"byteOffset":0,
		"byteLength":10368,
		"target":34963
	},
	{
		"buffer":11,
		"byteOffset":10368,
		"byteLength":34464,
		"target":34962,
		"byteStride":32
	}],
	"buffers":[{
		"uri":"data:application/octet-stream;base64,",
		"byteLength":2560
	},
	{
		"uri":"data:application/octet-stream;base64,",
		"byteLength":2560
	},
	{
		"uri":"data:application/octet-stream;base64,",
		"byteLength":2560
	},
	{
		"uri":"data:application/octet-stream;base64,",
		"byteLength":2560
	},
	{
		"uri":"data:application/octet-stream;base64,",
		"byteLength":193184
	},
	{
		"uri":"data:application/octet-stream;base64,",
		"byteLength":4768
	},
	{
		"uri":"data:application/octet-stream;base64,",
		"byteLength":4768
	},
	{
		"uri":"data:application/octet-stream;base64,",
		"byteLength":4768
	},
	{
		"uri":"data:application/octet-stream;base64,",
		"byteLength":83680
	},
	{
		"uri":"data:application/octet-stream;base64,",
		"byteLength":317056
	},
	{
		"uri":"data:application/octet-stream;base64,",
		"byteLength":317056
	},
	{
		"uri":"data:application/octet-stream;base64,",
		"byteLength":44832
	}]
}