<svg width="1512" height="982" viewBox="0 0 1512 982" fill="none" xmlns="http://www.w3.org/2000/svg">
<path d="M-1 490H1513" stroke="#E4E4E4"/>
<path d="M756 0L756 982" stroke="#E4E4E4"/>
<circle cx="756" cy="491" r="329" fill="url(#paint0_radial_2034_2)"/>
<circle cx="756" cy="491" r="133" stroke="white" stroke-opacity="0.3" stroke-width="48"/>
<path d="M954 491C954 608.278 865.165 703 756 703C646.835 703 558 608.278 558 491C558 373.722 646.835 279 756 279C865.165 279 954 373.722 954 491Z" stroke="white" stroke-opacity="0.3" stroke-width="6"/>
<circle cx="756" cy="491" r="252" fill="url(#paint1_radial_2034_2)"/>
<path d="M337.768 546.983L337.768 550.979L349 550.979L349 552.491L337.768 552.491L337.768 556.487L336.436 556.487L336.436 546.983L337.768 546.983ZM343.6 543.396L349 543.396L349 544.908L336.436 544.908L336.436 539.904C336.436 537.708 337.714 536.394 340 536.394C341.836 536.394 343.078 537.276 343.456 538.914L349 536.034L349 537.744L343.6 540.462L343.6 543.396ZM342.304 543.396L342.304 539.904C342.304 538.716 341.656 538.014 340.504 538.014L339.568 538.014C338.416 538.014 337.768 538.716 337.768 539.904L337.768 543.396L342.304 543.396ZM349 523.944L349 525.528L345.292 526.788L345.292 531.864L349 533.124L349 534.654L336.436 530.262L336.436 528.336L349 523.944ZM343.96 527.166L337.84 529.29L337.84 529.38L343.96 531.504L343.96 527.166ZM349 514.231L341.332 518.821L338.542 520.333L338.542 520.387L349 520.387L349 521.863L336.436 521.863L336.436 520.117L344.104 515.527L346.894 514.015L346.894 513.961L336.436 513.961L336.436 512.485L349 512.485L349 514.231ZM349.216 505.609C349.216 507.625 348.388 509.047 347.02 510.055L346.084 508.939C347.254 508.057 347.884 507.013 347.884 505.555C347.884 503.755 346.948 502.783 345.508 502.783C344.32 502.783 343.726 503.449 343.348 505.105L343.114 506.131C342.592 508.417 341.584 509.677 339.658 509.677C337.426 509.677 336.22 507.985 336.22 505.519C336.22 503.629 336.94 502.297 338.272 501.361L339.1 502.495C338.146 503.179 337.552 504.133 337.552 505.591C337.552 507.193 338.254 508.183 339.604 508.183C340.792 508.183 341.332 507.409 341.692 505.825L341.926 504.799C342.484 502.351 343.564 501.289 345.436 501.289C347.74 501.289 349.216 502.909 349.216 505.609ZM349 498.678L336.436 498.678L336.436 496.662L343.204 493.062L343.204 492.972L336.436 489.354L336.436 487.41L349 487.41L349 488.886L338.416 488.886L338.416 488.976L340.522 490.038L345.994 493.044L340.522 496.05L338.416 497.112L338.416 497.202L349 497.202L349 498.678ZM349 479.624L349 484.664L347.74 484.664L347.74 482.9L337.696 482.9L337.696 484.664L336.436 484.664L336.436 479.624L337.696 479.624L337.696 481.388L347.74 481.388L347.74 479.624L349 479.624ZM349.216 473.335C349.216 475.351 348.388 476.773 347.02 477.781L346.084 476.665C347.254 475.783 347.884 474.739 347.884 473.281C347.884 471.481 346.948 470.509 345.508 470.509C344.32 470.509 343.726 471.175 343.348 472.831L343.114 473.857C342.592 476.143 341.584 477.403 339.658 477.403C337.426 477.403 336.22 475.711 336.22 473.245C336.22 471.355 336.94 470.023 338.272 469.087L339.1 470.221C338.146 470.905 337.552 471.859 337.552 473.317C337.552 474.919 338.254 475.909 339.604 475.909C340.792 475.909 341.332 475.135 341.692 473.551L341.926 472.525C342.484 470.077 343.564 469.015 345.436 469.015C347.74 469.015 349.216 470.635 349.216 473.335ZM349.216 463.052C349.216 465.068 348.388 466.49 347.02 467.498L346.084 466.382C347.254 465.5 347.884 464.456 347.884 462.998C347.884 461.198 346.948 460.226 345.508 460.226C344.32 460.226 343.726 460.892 343.348 462.548L343.114 463.574C342.592 465.86 341.584 467.12 339.658 467.12C337.426 467.12 336.22 465.428 336.22 462.962C336.22 461.072 336.94 459.74 338.272 458.804L339.1 459.938C338.146 460.622 337.552 461.576 337.552 463.034C337.552 464.636 338.254 465.626 339.604 465.626C340.792 465.626 341.332 464.852 341.692 463.268L341.926 462.242C342.484 459.794 343.564 458.732 345.436 458.732C347.74 458.732 349.216 460.352 349.216 463.052ZM349 451.675L349 456.715L347.74 456.715L347.74 454.951L337.696 454.951L337.696 456.715L336.436 456.715L336.436 451.675L337.696 451.675L337.696 453.439L347.74 453.439L347.74 451.675L349 451.675ZM349.216 444.216C349.216 447.456 346.93 449.544 342.718 449.544C338.506 449.544 336.22 447.456 336.22 444.216C336.22 440.976 338.506 438.888 342.718 438.888C346.93 438.888 349.216 440.976 349.216 444.216ZM347.866 444.216C347.866 442.038 346.246 440.508 343.762 440.508L341.674 440.508C339.19 440.508 337.57 442.038 337.57 444.216C337.57 446.394 339.19 447.924 341.674 447.924L343.762 447.924C346.246 447.924 347.866 446.394 347.866 444.216ZM349 428.538L341.332 433.128L338.542 434.64L338.542 434.694L349 434.694L349 436.17L336.436 436.17L336.436 434.424L344.104 429.834L346.894 428.322L346.894 428.268L336.436 428.268L336.436 426.792L349 426.792L349 428.538Z" fill="black"/>
<path d="M1408 552.191L1408 559.859L1395.44 559.859L1395.44 552.191L1396.77 552.191L1396.77 558.347L1400.98 558.347L1400.98 552.551L1402.31 552.551L1402.31 558.347L1406.67 558.347L1406.67 552.191L1408 552.191ZM1408 541.733L1400.33 546.323L1397.54 547.835L1397.54 547.889L1408 547.889L1408 549.365L1395.44 549.365L1395.44 547.619L1403.1 543.029L1405.89 541.517L1405.89 541.463L1395.44 541.463L1395.44 539.987L1408 539.987L1408 541.733ZM1408.22 532.21C1408.22 535.378 1405.98 537.268 1401.79 537.268C1397.6 537.268 1395.22 535.378 1395.22 532.21C1395.22 530.122 1396.23 528.682 1397.97 527.89L1398.71 529.114C1397.42 529.618 1396.57 530.662 1396.57 532.21C1396.57 534.37 1398.28 535.648 1400.85 535.648L1402.73 535.648C1405.3 535.648 1406.87 534.37 1406.87 532.21C1406.87 530.608 1405.97 529.51 1404.6 529.006L1405.35 527.8C1407.12 528.592 1408.22 530.122 1408.22 532.21ZM1408 516.009L1408 517.593L1404.29 518.853L1404.29 523.929L1408 525.189L1408 526.719L1395.44 522.327L1395.44 520.401L1408 516.009ZM1402.96 519.231L1396.84 521.355L1396.84 521.445L1402.96 523.569L1402.96 519.231ZM1408 512.416L1408 513.928L1395.44 513.928L1395.44 508.924C1395.44 506.674 1396.82 505.414 1399.04 505.414C1401.25 505.414 1402.64 506.674 1402.64 508.924L1402.64 512.416L1408 512.416ZM1396.77 512.416L1401.3 512.416L1401.3 508.924C1401.3 507.736 1400.66 507.034 1399.5 507.034L1398.57 507.034C1397.42 507.034 1396.77 507.736 1396.77 508.924L1396.77 512.416ZM1408.22 499.484C1408.22 501.5 1407.39 502.922 1406.02 503.93L1405.08 502.814C1406.25 501.932 1406.88 500.888 1406.88 499.43C1406.88 497.63 1405.95 496.658 1404.51 496.658C1403.32 496.658 1402.73 497.324 1402.35 498.98L1402.11 500.006C1401.59 502.292 1400.58 503.552 1398.66 503.552C1396.43 503.552 1395.22 501.86 1395.22 499.394C1395.22 497.504 1395.94 496.172 1397.27 495.236L1398.1 496.37C1397.15 497.054 1396.55 498.008 1396.55 499.466C1396.55 501.068 1397.25 502.058 1398.6 502.058C1399.79 502.058 1400.33 501.284 1400.69 499.7L1400.93 498.674C1401.48 496.226 1402.56 495.164 1404.44 495.164C1406.74 495.164 1408.22 496.784 1408.22 499.484ZM1395.44 492.643L1395.44 491.131L1403.21 491.131C1405.61 491.131 1406.87 490.357 1406.87 488.125C1406.87 485.893 1405.61 485.119 1403.21 485.119L1395.44 485.119L1395.44 483.607L1402.85 483.607C1406.51 483.607 1408.22 484.831 1408.22 488.179C1408.22 491.527 1406.51 492.643 1402.85 492.643L1395.44 492.643ZM1408 473.495L1408 480.353L1395.44 480.353L1395.44 478.841L1406.67 478.841L1406.67 473.495L1408 473.495ZM1408 461.552L1408 463.136L1404.29 464.396L1404.29 469.472L1408 470.732L1408 472.262L1395.44 467.87L1395.44 465.944L1408 461.552ZM1402.96 464.774L1396.84 466.898L1396.84 466.988L1402.96 469.112L1402.96 464.774ZM1396.77 452.422L1396.77 456.418L1408 456.418L1408 457.93L1396.77 457.93L1396.77 461.926L1395.44 461.926L1395.44 452.422L1396.77 452.422ZM1408 446.025L1408 451.065L1406.74 451.065L1406.74 449.301L1396.7 449.301L1396.7 451.065L1395.44 451.065L1395.44 446.025L1396.7 446.025L1396.7 447.789L1406.74 447.789L1406.74 446.025L1408 446.025ZM1408.22 438.565C1408.22 441.805 1405.93 443.893 1401.72 443.893C1397.51 443.893 1395.22 441.805 1395.22 438.565C1395.22 435.325 1397.51 433.237 1401.72 433.237C1405.93 433.237 1408.22 435.325 1408.22 438.565ZM1406.87 438.565C1406.87 436.387 1405.25 434.857 1402.76 434.857L1400.67 434.857C1398.19 434.857 1396.57 436.387 1396.57 438.565C1396.57 440.743 1398.19 442.273 1400.67 442.273L1402.76 442.273C1405.25 442.273 1406.87 440.743 1406.87 438.565ZM1408 422.887L1400.33 427.477L1397.54 428.989L1397.54 429.043L1408 429.043L1408 430.519L1395.44 430.519L1395.44 428.773L1403.1 424.183L1405.89 422.671L1405.89 422.617L1395.44 422.617L1395.44 421.141L1408 421.141L1408 422.887Z" fill="black"/>
<circle cx="123" cy="758" r="11.5" stroke="#E4E4E4"/>
<circle cx="123" cy="334" r="11.5" stroke="#E4E4E4"/>
<circle cx="187" cy="758" r="11.5" stroke="#E4E4E4"/>
<circle cx="251" cy="758" r="11.5" stroke="#E4E4E4"/>
<circle cx="1279" cy="758" r="11.5" stroke="#E4E4E4"/>
<circle cx="251" cy="334" r="11.5" stroke="#E4E4E4"/>
<circle cx="99" cy="490" r="4" fill="#7BE79A"/>
<circle cx="131" cy="490" r="4" fill="#7BE79A"/>
<circle cx="423" cy="490" r="4" fill="#7BE79A"/>
<circle cx="1135" cy="490" r="4" fill="#7BE79A"/>
<circle cx="1463" cy="490" r="4" fill="#7BE79A"/>
<defs>
<radialGradient id="paint0_radial_2034_2" cx="0" cy="0" r="1" gradientUnits="userSpaceOnUse" gradientTransform="translate(756 491) rotate(90) scale(329)">
<stop stop-color="#05FF00"/>
<stop offset="1" stop-color="#2BE1E1" stop-opacity="0"/>
</radialGradient>
<radialGradient id="paint1_radial_2034_2" cx="0" cy="0" r="1" gradientUnits="userSpaceOnUse" gradientTransform="translate(756 491) rotate(90) scale(252)">
<stop stop-color="#D039E8"/>
<stop offset="1" stop-color="#05FF00" stop-opacity="0"/>
</radialGradient>
</defs>
</svg>
